<svg width="26" height="30" viewBox="0 0 26 30" fill="none" xmlns="http://www.w3.org/2000/svg">
<path id="Vector" d="M23.1533 5.17986L23.5708 3.66906H25.3927C25.7343 3.66906 26 3.41727 26 3.09352V0.57554C26 0.251799 25.7343 0 25.3927 0H0.607299C0.265694 0 0 0.251799 0 0.57554V3.09352C0 3.41727 0.265694 3.66906 0.607299 3.66906H2.4292L2.84672 5.17986C3.90949 9.35252 7.05985 12.6619 11.3109 14.1367V15.5036C7.09781 16.9784 3.94745 20.2878 2.84672 24.4604L2.31533 26.3309H0.607299C0.265694 26.3309 0 26.5827 0 26.9065V29.4245C0 29.7482 0.265694 30 0.607299 30H25.3927C25.7343 30 26 29.7482 26 29.4245V26.9065C26 26.5827 25.7343 26.3309 25.3927 26.3309H23.6847L23.1912 24.4245C22.0526 20.2878 18.9022 16.9784 14.6891 15.5036V14.1367C18.9022 12.6619 22.0526 9.35252 23.1533 5.17986ZM1.2146 1.15108H24.7474V2.48201H1.2146V1.15108ZM24.7854 28.8489H1.25256V27.518H24.7854V28.8489ZM13.9299 16.4029C17.9912 17.6619 21.0277 20.7914 22.0526 24.7122L22.4701 26.3309H3.49197L3.90949 24.7122C4.97226 20.7914 8.00876 17.6619 12.0321 16.4029C12.2599 16.3309 12.4117 16.1151 12.4117 15.8993V13.777C12.4117 13.5612 12.2599 13.3453 12.0321 13.2734C8.00876 11.9424 4.97226 8.84892 3.94745 4.92806L3.60584 3.66906H22.3942L22.0526 4.92806C21.0277 8.84892 17.9912 11.9424 13.9299 13.2374C13.7022 13.3094 13.5504 13.5252 13.5504 13.741V15.8633C13.5504 16.1151 13.7022 16.3309 13.9299 16.4029Z" fill="#E6BAC6"/>
</svg>
