<svg width="14" height="19" viewBox="0 0 14 19" fill="none" xmlns="http://www.w3.org/2000/svg">
<path d="M13.7876 15.1444V16.285H0.0213483V15.1444C0.0213483 15.1444 -0.273027 14.5137 1.32447 13.0012C2.92072 11.4894 2.71072 7.58125 2.71072 4.93437C2.71072 2.2875 6.42822 2.23125 6.42822 2.23125H6.55572C6.55572 2.2325 6.55572 2.21312 6.55572 1.80125C6.55572 1.53687 5.66822 0.579375 5.66822 0.579375L5.6551 0H8.16135L8.14447 0.60125C8.14447 0.60125 7.1826 1.55812 7.1826 1.84C7.1826 2.1125 7.1826 2.20375 7.1826 2.23062H7.38072C7.38072 2.23062 11.0982 2.28687 11.0982 4.93375C11.0982 7.58062 10.8882 11.4894 12.4851 13.0019C14.082 14.5144 13.7876 15.1444 13.7876 15.1444ZM8.47447 16.8894C8.47447 17.755 7.77322 18.6912 6.90822 18.6912C6.04322 18.6912 5.34197 17.755 5.34197 16.8894C5.34197 16.9087 8.47447 16.8694 8.47447 16.8894Z" fill="#F85961"/>
</svg>
