<svg width="32" height="28" viewBox="0 0 32 28" fill="none" xmlns="http://www.w3.org/2000/svg">
<g id="Group">
<path id="Vector" d="M11.9625 7.57581C13.78 6.87909 14.7492 4.66572 14.1264 2.63227C13.5044 0.599441 11.5264 -0.485777 9.70847 0.211084C7.89085 0.907245 6.92172 3.12047 7.54397 5.154C8.16654 7.18808 10.1446 8.27141 11.9625 7.57581Z" fill="#E6BAC6"/>
<path id="Vector_2" d="M6.39961 13.634V13.6347C7.44373 11.8296 6.98186 9.41929 5.36936 8.25156C3.75623 7.08446 1.60229 7.60015 0.558228 9.40453V9.40523C-0.48521 11.2096 -0.0233971 13.6194 1.58917 14.7864C3.20223 15.9548 5.35586 15.4385 6.39961 13.634Z" fill="#E6BAC6"/>
<path id="Vector_3" d="M20.0375 7.57587C21.8553 8.27147 23.8333 7.18814 24.4559 5.15399C25.0782 3.12054 24.109 0.907238 22.2915 0.211077C20.4736 -0.485784 18.4956 0.599504 17.8736 2.63226C17.2508 4.66578 18.2199 6.87915 20.0375 7.57587Z" fill="#E6BAC6"/>
<path id="Vector_4" d="M16 9.48926C10.5015 9.48926 4.43447 18.0071 6.19084 24.0679C7.88659 29.9194 13.1847 27.5078 16 27.5078C18.8153 27.5078 24.1133 29.9194 25.809 24.0679C27.5655 18.0071 21.4985 9.48926 16 9.48926Z" fill="#E6BAC6"/>
<path id="Vector_5" d="M31.4417 9.40523V9.40453C30.3977 7.60015 28.2439 7.08446 26.6307 8.25156C25.0182 9.41929 24.5564 11.8296 25.6004 13.6347V13.634C26.6441 15.4385 28.7977 15.9548 30.4109 14.7864C32.0234 13.6194 32.4852 11.2097 31.4417 9.40523Z" fill="#E6BAC6"/>
</g>
</svg>
