<svg width="21" height="20" viewBox="0 0 21 20" fill="none" xmlns="http://www.w3.org/2000/svg">
<path fill-rule="evenodd" clip-rule="evenodd" d="M15.5214 2.87226C15.8419 2.548 16.2705 2.37237 16.7128 2.38403C17.1552 2.39568 17.575 2.59366 17.8801 2.93441C18.1851 3.27516 18.3503 3.73077 18.3393 4.20101C18.3284 4.67125 18.1421 5.1176 17.8216 5.44186L6.36201 17.0634L3.40891 17.4759L4.61954 13.8767L15.5204 2.87336L15.5214 2.87226ZM19.3758 1.41806C18.6928 0.65602 17.7533 0.213196 16.7636 0.186798C15.7738 0.1604 14.8146 0.552586 14.0966 1.27726L3.01364 12.4621C2.89616 12.5806 2.8065 12.7268 2.75186 12.8889L0.889353 18.4296C0.829694 18.607 0.813926 18.7978 0.84356 18.9836C0.873194 19.1694 0.947237 19.344 1.05859 19.4907C1.16994 19.6373 1.31486 19.7511 1.47946 19.8211C1.64406 19.8911 1.82281 19.9149 1.99858 19.8904L6.96526 19.1974C7.18281 19.1672 7.38573 19.0644 7.54471 18.9037L19.2485 7.03466C19.9657 6.30758 20.3819 5.30743 20.4056 4.25415C20.4293 3.20088 20.0595 2.18073 19.3758 1.41806ZM12.2123 17.7003C11.9379 17.7003 11.6747 17.8162 11.4807 18.0224C11.2866 18.2287 11.1776 18.5085 11.1776 18.8003C11.1776 19.092 11.2866 19.3718 11.4807 19.5781C11.6747 19.7844 11.9379 19.9003 12.2123 19.9003H18.4207C18.6951 19.9003 18.9583 19.7844 19.1524 19.5781C19.3464 19.3718 19.4554 19.092 19.4554 18.8003C19.4554 18.5085 19.3464 18.2287 19.1524 18.0224C18.9583 17.8162 18.6951 17.7003 18.4207 17.7003H12.2123Z" fill="#F85961"/>
</svg>
