<svg width="22" height="19" viewBox="0 0 22 19" fill="none" xmlns="http://www.w3.org/2000/svg">
<path d="M16.5 0.158081C14.9813 0.158081 13.6063 0.785138 12.6112 1.79907L11.2434 3.18588C11.109 3.32278 10.8917 3.32278 10.7573 3.18588C10.7573 3.18588 9.39228 1.79592 9.38953 1.79907C8.39369 0.785138 7.01869 0.158081 5.5 0.158081C2.46228 0.158081 0 2.66596 0 5.75993C0 6.92862 0.352 8.01328 0.953219 8.91097C0.953219 8.91097 1.20553 9.31851 1.50391 9.62206C1.80228 9.92561 10.0279 18.3039 10.0279 18.3039C10.2963 18.5773 10.6483 18.7142 11 18.7142C11.3517 18.7142 11.7037 18.5773 11.9721 18.3039C11.9721 18.3039 20.1981 9.92561 20.4961 9.62206C20.7941 9.31851 21.0468 8.91097 21.0468 8.91097C21.648 8.01328 22 6.92862 22 5.75993C22 2.66596 19.5377 0.158081 16.5 0.158081ZM19.5938 6.11005C19.4037 6.11005 19.25 5.95355 19.25 5.75993C19.25 4.21312 18.0187 2.95901 16.5 2.95901C16.3099 2.95901 16.1562 2.80251 16.1562 2.60889C16.1562 2.41528 16.3099 2.25878 16.5 2.25878C18.3982 2.25878 19.9375 3.82659 19.9375 5.75993C19.9375 5.95355 19.7838 6.11005 19.5938 6.11005Z" fill="#F85961"/>
</svg>
