<svg width="50" height="50" viewBox="0 0 50 50" fill="none" xmlns="http://www.w3.org/2000/svg">
<path d="M36.6667 0C35.7823 1.05319e-05 34.9342 0.351102 34.3089 0.97604C33.6836 1.60098 33.3324 2.44857 33.3324 3.33236V5.00016H3.33431C2.45002 5.00017 1.60194 5.35124 0.976642 5.97614C0.351342 6.60104 3.51057e-05 7.4486 1.39102e-10 8.33236C-3.99934e-06 8.76996 0.0862373 9.20329 0.2538 9.60759C0.421363 10.0119 0.666965 10.3792 0.976584 10.6887C1.2862 10.9981 1.65378 11.2436 2.05832 11.411C2.46285 11.5785 2.89644 11.6647 3.33431 11.6647H33.3324V13.3345C33.3324 14.2183 33.6836 15.0659 34.3089 15.6908C34.9342 16.3157 35.7823 16.6668 36.6667 16.6668C37.551 16.6668 38.3991 16.3157 39.0244 15.6908C39.6497 15.0659 40.001 14.2183 40.001 13.3345V11.6647H46.6655C47.1034 11.6647 47.537 11.5786 47.9416 11.4111C48.3461 11.2436 48.7137 10.9982 49.0234 10.6887C49.333 10.3793 49.5786 10.0119 49.7462 9.60762C49.9138 9.20331 50 8.76998 50 8.33236C50 7.89475 49.9137 7.46143 49.7461 7.05714C49.5786 6.65285 49.3329 6.28551 49.0233 5.97608C48.7137 5.66666 48.3461 5.42122 47.9415 5.25377C47.537 5.08632 47.1034 5.00014 46.6655 5.00016H40.001V3.33236C40.001 2.44857 39.6497 1.60098 39.0244 0.97604C38.3991 0.351102 37.551 1.05319e-05 36.6667 0ZM12.5 16.6667C12.0621 16.6667 11.6285 16.7528 11.224 16.9203C10.8194 17.0878 10.4518 17.3332 10.1422 17.6426C9.83254 17.9521 9.58692 18.3195 9.41935 18.7238C9.25177 19.1281 9.16553 19.5614 9.16553 19.999V21.6667H3.33529C2.89741 21.6667 2.46383 21.7529 2.05929 21.9203C1.65475 22.0878 1.28718 22.3333 0.977561 22.6427C0.667941 22.9521 0.422339 23.3195 0.254776 23.7238C0.0872138 24.1281 0.000972507 24.5614 0.000976548 24.999C0.000972507 25.4366 0.0872138 25.87 0.254776 26.2743C0.422339 26.6786 0.667941 27.0459 0.977561 27.3553C1.28718 27.6648 1.65475 27.9102 2.05929 28.0777C2.46383 28.2452 2.89741 28.3314 3.33529 28.3314H9.16553V30.0011C9.16553 30.4388 9.25177 30.8721 9.41935 31.2764C9.58692 31.6807 9.83254 32.0481 10.1422 32.3575C10.4518 32.667 10.8194 32.9124 11.224 33.0799C11.6285 33.2473 12.0621 33.3335 12.5 33.3335C13.3843 33.3335 14.2324 32.9824 14.8577 32.3575C15.483 31.7325 15.8343 30.8849 15.8343 30.0011V28.3314H46.6667C47.1045 28.3314 47.5381 28.2452 47.9427 28.0777C48.3472 27.9102 48.7148 27.6648 49.0244 27.3553C49.334 27.0459 49.5796 26.6786 49.7472 26.2743C49.9147 25.87 50.001 25.4366 50.001 24.999C50.001 24.5614 49.9147 24.1281 49.7472 23.7238C49.5796 23.3195 49.334 22.9521 49.0244 22.6427C48.7148 22.3333 48.3472 22.0878 47.9427 21.9203C47.5381 21.7529 47.1045 21.6667 46.6667 21.6667H15.8343V19.999C15.8343 19.1152 15.483 18.2676 14.8577 17.6427C14.2324 17.0178 13.3843 16.6667 12.5 16.6667ZM23.3333 33.3335C22.449 33.3335 21.601 33.6846 20.9757 34.3095C20.3504 34.9344 19.9991 35.7819 19.999 36.6657V38.3333H3.33529C2.89741 38.3333 2.46383 38.4195 2.05929 38.587C1.65475 38.7545 1.28718 38.9999 0.977561 39.3094C0.667941 39.6188 0.422339 39.9862 0.254776 40.3905C0.0872138 40.7948 0.000972507 41.2281 0.000976548 41.6657C0.00101172 42.5495 0.352319 43.397 0.977619 44.0219C1.60292 44.6468 2.45099 44.9979 3.33529 44.9979H19.999V46.6678C19.9991 47.5516 20.3504 48.3991 20.9757 49.024C21.601 49.6489 22.449 50 23.3333 50C24.2176 50 25.0657 49.6489 25.691 49.024C26.3163 48.3991 26.6676 47.5516 26.6676 46.6678V44.9979H46.6667C47.551 44.9979 48.399 44.6468 49.0243 44.0219C49.6496 43.397 50.0009 42.5495 50.001 41.6657C50.001 41.2281 49.9147 40.7948 49.7472 40.3905C49.5796 39.9862 49.334 39.6188 49.0244 39.3094C48.7148 38.9999 48.3472 38.7545 47.9427 38.587C47.5381 38.4195 47.1045 38.3333 46.6667 38.3333H26.6676V36.6657C26.6676 35.7819 26.3163 34.9344 25.691 34.3095C25.0657 33.6846 24.2176 33.3335 23.3333 33.3335Z" fill="#F85961"/>
</svg>
