<svg width="27" height="30" viewBox="0 0 27 30" fill="none" xmlns="http://www.w3.org/2000/svg">
<path id="Vector" d="M18.8308 0V2.75H21.8001L19.2316 5.06812C18.2065 3.98785 16.9344 3.12074 15.5028 2.52639C14.0713 1.93204 12.5142 1.62453 10.9385 1.625C4.90708 1.625 0 6.055 0 11.5C0 16.4788 4.10262 20.6075 9.41539 21.2787V23.625H5.95385V26.375H9.41539V30H12.4615V26.375H15.9231V23.625H12.4615V21.2787C17.7743 20.6075 21.8769 16.4788 21.8769 11.5C21.8776 10.1004 21.5472 8.71684 20.9077 7.44188L23.9538 4.69187V7.375H27V0H18.8308ZM10.9385 18.625C9.37751 18.625 7.85161 18.2071 6.55373 17.4242C5.25585 16.6413 4.24427 15.5285 3.64692 14.2266C3.04957 12.9247 2.89328 11.4921 3.1978 10.11C3.50233 8.72787 4.254 7.45831 5.35776 6.46186C6.46152 5.46541 7.86779 4.78682 9.39875 4.5119C10.9297 4.23699 12.5166 4.37808 13.9587 4.91736C15.4008 5.45663 16.6335 6.36986 17.5007 7.54156C18.3679 8.71326 18.8308 10.0908 18.8308 11.5C18.8284 13.389 17.9961 15.2 16.5165 16.5358C15.037 17.8715 13.0309 18.6228 10.9385 18.625Z" fill="#E6BAC6"/>
</svg>
