<svg width="17" height="23" viewBox="0 0 17 23" fill="none" xmlns="http://www.w3.org/2000/svg">
<path d="M8.5 5.47942C7.77951 5.47942 7.0752 5.69845 6.47614 6.10881C5.87707 6.51917 5.41016 7.10243 5.13444 7.78483C4.85872 8.46724 4.78658 9.21813 4.92714 9.94257C5.0677 10.667 5.41465 11.3324 5.92411 11.8547C6.43357 12.377 7.08267 12.7327 7.78931 12.8768C8.49596 13.0209 9.22842 12.9469 9.89406 12.6643C10.5597 12.3816 11.1286 11.903 11.5289 11.2888C11.9292 10.6747 12.1429 9.95262 12.1429 9.21399C12.1418 8.22387 11.7576 7.27461 11.0747 6.57449C10.3918 5.87436 9.46581 5.48054 8.5 5.47942ZM8.5 12.1187C7.93962 12.1187 7.39182 11.9483 6.92588 11.6291C6.45995 11.31 6.09679 10.8563 5.88234 10.3256C5.66789 9.7948 5.61178 9.21077 5.72111 8.64732C5.83043 8.08387 6.10028 7.56631 6.49653 7.16008C6.89278 6.75386 7.39763 6.47722 7.94724 6.36514C8.49686 6.25306 9.06655 6.31059 9.58427 6.53043C10.102 6.75028 10.5445 7.12258 10.8558 7.60025C11.1672 8.07792 11.3333 8.6395 11.3333 9.21399C11.3325 9.98409 11.0337 10.7224 10.5025 11.2669C9.97137 11.8115 9.25119 12.1178 8.5 12.1187ZM8.5 0.5C6.24644 0.502617 4.08592 1.42154 2.49241 3.05516C0.898905 4.68878 0.00255237 6.9037 0 9.21399C0 12.3695 1.43396 15.728 4.14693 18.9265C5.37509 20.381 6.75723 21.6911 8.26788 22.8324C8.33591 22.8812 8.41695 22.9074 8.5 22.9074C8.58305 22.9074 8.66409 22.8812 8.73213 22.8324C10.2428 21.6911 11.6249 20.381 12.8531 18.9265C15.566 15.728 17 12.3695 17 9.21399C16.9974 6.9037 16.1011 4.68878 14.5076 3.05516C12.9141 1.42154 10.7536 0.502617 8.5 0.5ZM12.2545 18.3673C11.124 19.6964 9.86618 20.9058 8.5 21.9774C7.13382 20.9058 5.87601 19.6964 4.74548 18.3673C2.94994 16.247 0.809524 12.9378 0.809524 9.21399C0.809524 7.123 1.61977 5.11765 3.06201 3.6391C4.50426 2.16055 6.46036 1.3299 8.5 1.3299C10.5396 1.3299 12.4957 2.16055 13.938 3.6391C15.3802 5.11765 16.1905 7.123 16.1905 9.21399C16.1905 12.9378 14.0501 16.247 12.2545 18.3673Z" fill="#F85961"/>
</svg>
