<svg width="18" height="23" viewBox="0 0 18 23" fill="none" xmlns="http://www.w3.org/2000/svg">
<path d="M2.51328 20.9437C3.45133 21.769 4.56225 22.3492 5.75499 22.6365C5.86913 22.6757 5.94593 22.5189 5.86913 22.4405C3.31437 19.8804 4.71815 17.1098 5.75499 15.8606C6.49421 14.9688 7.54705 13.5 7.47025 11.5304C7.47025 11.3332 7.66225 11.1752 7.81372 11.294C9.26337 12.0816 10.2543 13.8148 10.521 15.2321C10.9413 14.7996 11.0938 14.1296 11.0938 13.5392C11.0938 13.342 11.3221 13.184 11.513 13.342C12.8859 14.6416 15.2497 19.0525 11.4362 22.5178C11.3605 22.5973 11.4362 22.7553 11.513 22.7161C12.6694 22.3977 13.7568 21.8493 14.7164 21.1005C20.932 16.0589 16.8892 7.1184 14.2577 4.16513C13.9153 3.80998 13.3051 4.04637 13.3051 4.55838C13.2667 5.62272 12.9616 6.80358 12.1616 7.5912C11.5514 4.91353 9.51831 1.87175 6.62008 0.374949C6.23927 0.177765 5.78166 0.492587 5.82006 0.926167C5.89473 4.58975 3.61945 6.92234 1.63645 9.95516C-0.118272 12.672 -1.26178 17.6744 2.51328 20.9437Z" fill="#F85961"/>
</svg>
