<svg width="60" height="54" viewBox="0 0 60 54" fill="none" xmlns="http://www.w3.org/2000/svg">
<path d="M59.6946 7.05844C59.4672 6.79813 59.1412 6.64497 58.7957 6.63604L52.7215 6.47861C51.8771 5.0831 50.3424 4.19145 48.676 4.19145C48.4982 4.19145 48.3215 4.20148 48.1458 4.22139L46.6273 1.0309C46.4162 0.587066 45.9626 0.312468 45.4707 0.326617C44.9793 0.342689 44.5443 0.648331 44.3624 1.10494L43.536 3.18056L41.5587 0.502173C41.2417 0.072625 40.6848 -0.104854 40.1776 0.0620476C39.6705 0.228949 39.3279 0.702454 39.3279 1.2364V21.9782C39.3279 21.9782 16.6668 26.9106 16.5789 26.9535C15.1222 27.1488 13.6745 26.7735 12.4954 25.8929C11.2994 24.9997 10.5232 23.6943 10.3092 22.2171C10.0951 20.74 10.4691 19.2679 11.3621 18.0721C12.2552 16.8764 13.5605 16.1 15.0376 15.8859C15.7135 15.788 16.1818 15.1609 16.0838 14.4851C15.9859 13.8094 15.3592 13.3407 14.6831 13.4389C12.5522 13.7477 10.6693 14.8676 9.38097 16.5927C8.0926 18.3176 7.55316 20.441 7.86196 22.5716C8.17063 24.7025 9.29058 26.5855 11.0156 27.874C12.1328 28.7085 13.4172 29.2273 14.7625 29.4065C14.5115 29.9254 14.2707 30.531 14.08 31.2203C13.4762 33.4032 13.2595 36.8861 15.4923 41.312L11.865 46.2388C11.6298 46.5582 11.5621 46.9711 11.6831 47.3488L13.2718 52.3083C13.4358 52.8203 13.9116 53.1676 14.4491 53.1676H16.0669C16.0677 53.1676 16.0686 53.1676 16.0697 53.1676C16.7525 53.1676 17.306 52.6141 17.306 51.9313C17.306 51.7861 17.281 51.6469 17.2351 51.5175L16.5356 49.0066L26.8442 41.8719C26.8757 41.85 26.9063 41.8267 26.9357 41.8019C27.933 40.9644 28.7248 39.9777 29.2976 38.8604L42.3015 38.6304L44.4228 52.1232C44.5173 52.7246 45.0355 53.1676 45.6442 53.1676H46.9754C47.6582 53.1676 48.2117 52.6141 48.2117 51.9313V38.1682C49.8008 37.3492 50.1662 35.6539 50.1664 34.2693V17.1364C55.306 17.0401 59.4236 13.2301 59.9927 8.00586C60.0302 7.66231 59.9221 7.31875 59.6946 7.05844Z" fill="white"/>
<path d="M8.16154 49.9599H8.04657C8.24973 49.7083 8.37213 49.3886 8.37213 49.0407C8.37213 48.2321 7.71441 47.5743 6.90587 47.5743H6.81026C7.01343 47.3226 7.13582 47.003 7.13582 46.655C7.13582 45.8463 6.47811 45.1885 5.66956 45.1885H3.95838C3.14983 45.1885 2.49212 45.8463 2.49212 46.655C2.49212 47.003 2.61451 47.3226 2.81768 47.5743H2.72207C1.91353 47.5743 1.25581 48.2321 1.25581 49.0407C1.25581 49.3886 1.37821 49.7083 1.58137 49.9599H1.4664C0.657852 49.9599 0 50.6178 0 51.4265C0 52.235 0.657852 52.8929 1.46653 52.8929H8.16154C8.97009 52.8929 9.6278 52.235 9.6278 51.4265C9.6278 50.6178 8.97009 49.9599 8.16154 49.9599Z" fill="white"/>
</svg>
