<svg width="20" height="22" viewBox="0 0 20 22" fill="none" xmlns="http://www.w3.org/2000/svg">
<path fill-rule="evenodd" clip-rule="evenodd" d="M17.7677 0.251539C15.9661 0.539531 14.0816 1.40501 12.6604 2.57078C11.7183 2.27019 10.7082 2.10762 9.65933 2.10762C8.60343 2.10762 7.58675 2.27237 6.63928 2.57682C5.18417 1.43066 3.38686 0.532958 1.56022 0.252884C1.17137 0.194559 0.766933 0.394751 0.589375 0.756434C-0.123241 2.47139 -0.14744 4.51634 0.290817 6.30203L0.297602 6.32972C0.415026 6.80889 0.566826 7.42819 1.05404 7.63653C0.691858 8.5434 0.492668 9.52695 0.492668 10.5596C0.492668 13.148 1.53602 15.8111 2.47157 18.1988L2.56626 18.4404C3.13432 19.8922 4.40537 20.8922 5.87808 21.1708L7.95901 21.5645C8.60068 21.6859 9.24115 21.4501 9.65933 20.9749C10.0775 21.4501 10.7179 21.6859 11.3596 21.5645L13.4405 21.1708C14.9132 20.8922 16.1843 19.8922 16.7524 18.4404L16.847 18.1988C17.7825 15.8111 18.826 13.148 18.826 10.5596C18.826 9.52695 18.6267 8.5434 18.2645 7.63653C18.7522 7.42798 18.9001 6.82372 19.0177 6.34321L19.0278 6.30203C19.4465 4.59607 19.527 2.38477 18.7292 0.756434C18.5526 0.396683 18.1577 0.18983 17.7677 0.251539ZM14.6233 3.4526C15.6588 4.06894 16.5575 4.8761 17.2551 5.82479C17.5283 4.68882 17.5313 3.42553 17.2906 2.28276C16.3616 2.55609 15.4525 2.94361 14.6233 3.4526ZM2.06356 5.8248C2.75656 4.8823 3.64811 4.07947 4.67505 3.46469C3.85097 2.94841 2.96373 2.5348 2.03056 2.27063C1.78663 3.41662 1.78947 4.68515 2.06356 5.8248ZM12.5435 4.50427C11.6606 4.16434 10.6863 3.9749 9.65933 3.9749C8.6323 3.9749 7.65798 4.16434 6.77513 4.50427C4.10855 5.53097 2.326 7.89457 2.326 10.5596C2.326 12.8143 3.25266 15.1671 4.08023 17.2681C4.14393 17.4299 4.20718 17.5904 4.26924 17.7491C4.59099 18.5713 5.32258 19.1664 6.21294 19.3349L8.29387 19.7286L8.82333 18.5301C8.97138 18.195 9.29863 17.9795 9.65933 17.9795C10.02 17.9795 10.3472 18.195 10.4952 18.5301L11.0248 19.7286L13.1057 19.3349C13.996 19.1664 14.7276 18.5713 15.0493 17.7491C15.1113 17.5906 15.1744 17.4305 15.238 17.2689C16.0656 15.1678 16.9926 12.8143 16.9926 10.5596C16.9926 7.89457 15.21 5.53097 12.5435 4.50427ZM11.0343 14.2449C11.3816 14.2449 11.6989 14.4447 11.8542 14.761C12.0095 15.0774 11.976 15.4559 11.7677 15.7387L10.3927 17.606C10.2195 17.8411 9.9479 17.9795 9.65933 17.9795C9.37077 17.9795 9.09916 17.8411 8.926 17.606L7.551 15.7387C7.34264 15.4559 7.30918 15.0774 7.46447 14.761C7.61975 14.4447 7.9371 14.2449 8.28433 14.2449H11.0343ZM11.8398 9.68996C11.8398 10.4635 12.4554 11.0904 13.2148 11.0904C13.9742 11.0904 14.5898 10.4635 14.5898 9.68996C14.5898 8.91653 13.9742 8.28954 13.2148 8.28954C12.4554 8.28954 11.8398 8.91653 11.8398 9.68996ZM5.99267 10.9772C5.2333 10.9772 4.61767 10.3502 4.61767 9.57671C4.61767 8.80328 5.2333 8.17628 5.99267 8.17628C6.75203 8.17628 7.36767 8.80328 7.36767 9.57671C7.36767 10.3502 6.75203 10.9772 5.99267 10.9772Z" fill="#F85961"/>
</svg>
