<svg width="69" height="59" viewBox="0 0 69 59" fill="none" xmlns="http://www.w3.org/2000/svg">
<path d="M64.753 47.6578L64.9063 46.828C64.978 46.4397 64.8911 46.038 64.6661 45.7185C64.4412 45.3991 64.0985 45.1905 63.7195 45.1422L55.2951 44.0711L52.0291 39.627C52.1592 39.393 52.7269 38.4035 52.7269 38.4035C54.7263 40.2372 57.1892 41.1743 59.6997 41.1743C62.1376 41.1743 64.6206 40.2903 66.7666 38.4857C67.066 38.234 67.2499 37.864 67.2738 37.4655C67.2976 37.0671 67.1593 36.6764 66.8923 36.3884L62.4055 31.5481C62.861 29.5565 62.1539 27.4626 60.6242 26.1941L61.8597 22.5306C62.0406 21.9945 61.8974 21.3984 61.4951 21.0125C61.0929 20.6266 60.5081 20.5239 60.0052 20.7511L57.901 21.7027L58.3995 18.148C58.4863 17.5292 58.1742 16.924 57.6294 16.6542C57.0843 16.3846 56.4336 16.5133 56.023 16.9719L45.1905 29.0692L6.56539 14.5002C3.563 13.3632 2.01391 9.90944 3.11208 6.80125C3.64408 5.29555 4.71068 4.09436 6.11523 3.41918C7.51994 2.74384 9.09432 2.67529 10.5487 3.22607C11.2642 3.49725 12.0562 3.1161 12.318 2.37555C12.5798 1.63484 12.212 0.81479 11.4965 0.543768C9.35028 -0.269142 7.02642 -0.167746 4.95346 0.828754C2.88034 1.8251 1.30627 3.59785 0.521227 5.81998C-1.09959 10.4075 1.18672 15.5046 5.61772 17.1825L7.57083 17.9221C7.5414 18.0005 7.60072 17.8419 7.57083 17.9221C6.97983 18.9916 6.1278 20.8886 5.70999 22.9068C5.05783 26.058 5.14612 30.667 9.0485 35.1139L4.86104 45.7279C4.73873 46.038 4.72555 46.3826 4.82379 46.7017L8.07416 57.2546C8.25839 57.8527 8.79438 58.2489 9.38737 58.2489C9.44516 58.2489 9.50355 58.2453 9.5621 58.2375L11.5229 57.9796C11.9287 57.9263 12.2907 57.6892 12.5111 57.3324C12.7315 56.9757 12.7876 56.5358 12.6643 56.1321L10.3496 48.5571L19.1176 40.4146L27.3534 45.2955C27.3365 45.2865 27.3698 45.3054 27.3534 45.2955C30.7592 47.1368 34.3517 48.1384 37.7427 48.1384C38.9252 48.1384 40.072 48.0222 41.1746 47.7966L47.6833 55.5331C47.9137 55.807 48.2361 55.9796 48.5853 56.016L59.5598 57.1605C59.6067 57.1654 59.6531 57.1678 59.6993 57.1678C60.3537 57.1678 60.9276 56.6866 61.0528 56.0079L61.2061 55.1782C61.2778 54.7899 61.1909 54.3881 60.9659 54.0687C60.741 53.7493 60.3983 53.5406 60.0193 53.4924L51.7619 52.4425L48.0364 44.5061C48.2504 44.3279 48.4604 44.1437 48.6659 43.9534L51.3829 47.1828C51.6133 47.4567 51.9357 47.6294 52.2849 47.6658L63.2595 48.8104C63.3064 48.8153 63.3529 48.8177 63.399 48.8177C64.0539 48.8179 64.6276 48.3366 64.753 47.6578Z" fill="white"/>
<path d="M65.9421 50.5664C64.7072 50.5664 63.7025 51.6065 63.7025 52.885C63.7025 54.1635 64.7072 55.2036 65.9421 55.2036C67.177 55.2036 68.1816 54.1635 68.1816 52.885C68.1818 51.6065 67.1771 50.5664 65.9421 50.5664Z" fill="white"/>
</svg>
